<svg data-v-0dd9719b="" version="1.0" xmlns="http://www.w3.org/2000/svg" xmlns:xlink="http://www.w3.org/1999/xlink" width="100%" height="100%" viewBox="0 0 340.000000 250.000000" preserveAspectRatio="xMidYMid meet" color-interpolation-filters="sRGB" style="margin: auto;"> <rect data-v-0dd9719b="" x="0" y="0" width="100%" height="100%" fill="#feffff" fill-opacity="1" class="background"></rect> <rect data-v-0dd9719b="" x="0" y="0" width="100%" height="100%" fill="url(#watermark)" fill-opacity="1" class="watermarklayer"></rect> <g data-v-0dd9719b="" fill="#333" class="iconlettersvg-g iconlettersvg" transform="translate(57.86132828053087,102.40702056884766)"><g><g class="tp-name"><g transform="scale(1)"><g transform="translate(0, 0)"><g class="name-imagesvg"><g><rect fill="#333" fill-opacity="0" stroke-width="2" x="0" y="0" width="44.64016612643051" height="45" class="image-rect"></rect> <svg x="0" y="0" width="44.64016612643051" height="45" filtersec="colorsb1452268170" class="image-svg-svg primary" style="overflow: visible;"><svg xmlns="http://www.w3.org/2000/svg" viewBox="0 0 74.45 74.45"><path d="M74.45 37.22V0H0v37.22a37.23 37.23 0 1 0 74.45 0z" fill="#ec5930"></path></svg></svg> <!----></g></g></g><g transform="translate(44.64016612643051, 0)"><g class="name-imagesvg"><g><rect fill="#333" fill-opacity="0" stroke-width="2" x="0" y="0" width="45.00000461145424" height="45" class="image-rect"></rect> <svg x="0" y="0" width="45.00000461145424" height="45" filtersec="colorsb4962336630" class="image-svg-svg primary" style="overflow: visible;"><svg xmlns="http://www.w3.org/2000/svg" viewBox="0 0 74.45 74.45"><path d="M25.72 51.44h48.73V0H25.72a25.72 25.72 0 0 0 0 51.44z" fill="#9ac74e" opacity=".8"></path><path d="M48.73 23H0v51.45h48.73a25.72 25.72 0 1 0 0-51.44z" fill="#d3e4b0" opacity=".8"></path></svg></svg> <!----></g></g></g><g transform="translate(89.64017073788474, 0)"><g class="name-imagesvg"><g><rect fill="#333" fill-opacity="0" stroke-width="2" x="0" y="0" width="45" height="45" class="image-rect"></rect> <svg x="0" y="0" width="45" height="45" filtersec="colorsb9386516181" class="image-svg-svg primary" style="overflow: visible;"><svg xmlns="http://www.w3.org/2000/svg" viewBox="0 0 74.45 74.45"><path fill="#2799c8" opacity=".8" d="M0 0h74.45v23.86H0zM0 25.77h74.45v22.91H0zM0 50.59h74.45v23.86H0z"></path><path fill="#0069ae" opacity=".8" d="M0 0h37.23v74.45H0z"></path></svg></svg> <!----></g></g></g><g transform="translate(134.64017073788474, 0)"><g class="name-imagesvg"><g><rect fill="#333" fill-opacity="0" stroke-width="2" x="0" y="0" width="44.64016612643051" height="45" class="image-rect"></rect> <svg x="0" y="0" width="44.64016612643051" height="45" filtersec="colorsb5699552370" class="image-svg-svg primary" style="overflow: visible;"><svg xmlns="http://www.w3.org/2000/svg" viewBox="0 0 74.45 74.45"><path d="M74.45 37.22V0H0v37.22a37.23 37.23 0 1 0 74.45 0z" fill="#ec5930"></path></svg></svg> <!----></g></g></g><g transform="translate(179.28033686431525, 0)"><g class="name-imagesvg"><g><rect fill="#333" fill-opacity="0" stroke-width="2" x="0" y="0" width="45.00000461145424" height="45" class="image-rect"></rect> <svg x="0" y="0" width="45.00000461145424" height="45" filtersec="colorsb4426299710" class="image-svg-svg primary" style="overflow: visible;"><svg xmlns="http://www.w3.org/2000/svg" viewBox="0 0 74.45 74.45"><path d="M25.72 51.44h48.73V0H25.72a25.72 25.72 0 0 0 0 51.44z" fill="#9ac74e" opacity=".8"></path><path d="M48.73 23H0v51.45h48.73a25.72 25.72 0 1 0 0-51.44z" fill="#d3e4b0" opacity=".8"></path></svg></svg> <!----></g></g></g></g></g></g> <!----></g><defs v-gra="od"></defs></svg>