<svg data-v-0dd9719b="" version="1.0" xmlns="http://www.w3.org/2000/svg" xmlns:xlink="http://www.w3.org/1999/xlink" width="100%" height="100%" viewBox="0 0 340.000000 250.000000" preserveAspectRatio="xMidYMid meet" color-interpolation-filters="sRGB" style="margin: auto;"> <rect data-v-0dd9719b="" x="0" y="0" width="100%" height="100%" fill="#ffffff" fill-opacity="1" class="background"></rect> <rect data-v-0dd9719b="" x="0" y="0" width="100%" height="100%" fill="url(#watermark)" fill-opacity="1" class="watermarklayer"></rect> <g data-v-0dd9719b="" class="iconmbgsvg" transform="translate(88.69499969482422,89.24609756470527)"><g fill="#FD9A96" hollow-target="text"><g mask="url(#c82533f0-97bc-4d73-9c92-812f33b8105e)"><g><rect fill="#FD9A96" fill-opacity="0" stroke-width="2" x="0" y="0" width="102.5" height="71.50780307099852" class="image-rect"></rect> <svg x="0" y="0" width="102.5" height="71.50780307099852" filtersec="colorsb915131801" class="image-svg-svg primary" style="overflow: visible;"><svg xmlns="http://www.w3.org/2000/svg" viewBox="-0.00145721435546875 0.0017375946044921875 1490.7723388671875 1040.02099609375"><g><path d="M413.94 1037.16C170.07 1029 104 1011.66 59.15 943.88c-18.14-27.39-38.5-88.67-45-135.42C-8.6 644.41-3 302.32 24.35 184.42 49.13 77.64 107.4 25.33 213.69 14.44 318.1 3.73 590.29-2.1 855 .7c285.83 3 420.39 9.13 469.08 21.31 95.24 23.82 141.44 94 157.55 239.2 3 27.45 6.79 123.3 8.32 213 6.16 362.07-21.08 477.25-124.89 528.11-39.2 19.2-64.84 23.62-175.63 30.23-120.33 7.18-611.37 10.11-775.53 4.63z" fill="#805FF3"></path></g></svg></svg> <!----></g></g> <g transform="translate(5.8899993896484375,20.488901138305664)"><g data-gra="path-name" fill-rule="" class="tp-name"><g transform="scale(1)"><g><path d="M16.52 0.4Q9.99 0.4 6.61-2.97 3.24-6.34 3.24-12.82L3.24-12.82 3.24-29.07Q3.24-30.38 4-31.16 4.77-31.95 6.08-31.95L6.08-31.95Q7.38-31.95 8.14-31.16 8.91-30.38 8.91-29.07L8.91-29.07 8.91-12.51Q8.91-8.41 10.84-6.32 12.78-4.23 16.52-4.23L16.52-4.23Q20.2-4.23 22.14-6.34 24.07-8.46 24.07-12.51L24.07-12.51 24.07-29.07Q24.07-30.38 24.84-31.16 25.61-31.95 26.91-31.95L26.91-31.95Q28.21-31.95 28.98-31.16 29.74-30.38 29.74-29.07L29.74-29.07 29.74-12.82Q29.74-6.39 26.37-2.99 22.99 0.4 16.52 0.4L16.52 0.4ZM50.38 0.4Q46.92 0.4 43.84-0.52 40.75-1.44 38.82-3.01L38.82-3.01Q37.78-3.78 37.78-5.17L37.78-5.17Q37.78-6.12 38.35-6.82 38.91-7.51 39.67-7.51L39.67-7.51Q40.48-7.51 41.52-6.88L41.52-6.88Q43.45-5.49 45.57-4.86 47.69-4.23 50.25-4.23L50.25-4.23Q53.53-4.23 55.29-5.38 57.05-6.52 57.05-8.73L57.05-8.73Q57.05-10.44 55.4-11.36 53.76-12.29 49.94-13.14L49.94-13.14Q45.98-13.99 43.5-15.12 41.02-16.25 39.77-18 38.51-19.75 38.51-22.45L38.51-22.45Q38.51-25.24 40.08-27.45 41.66-29.65 44.47-30.89 47.28-32.13 50.79-32.13L50.79-32.13Q57.22-32.13 61.27-28.71L61.27-28.71Q61.86-28.21 62.11-27.74 62.35-27.27 62.35-26.55L62.35-26.55Q62.35-25.61 61.79-24.91 61.23-24.21 60.47-24.21L60.47-24.21Q60.02-24.21 59.63-24.34 59.25-24.48 58.62-24.84L58.62-24.84Q56.77-26.19 55.04-26.84 53.31-27.49 50.79-27.49L50.79-27.49Q47.73-27.49 45.95-26.26 44.17-25.02 44.17-22.81L44.17-22.81Q44.17-20.97 45.75-19.98 47.33-18.99 51.1-18.13L51.1-18.13Q55.11-17.23 57.61-16.13 60.1-15.03 61.43-13.32 62.76-11.61 62.76-9.04L62.76-9.04Q62.76-6.25 61.21-4.12 59.66-1.98 56.84-0.79 54.03 0.4 50.38 0.4L50.38 0.4ZM73.9 0Q72.6 0 71.86-0.72 71.11-1.44 71.11-2.75L71.11-2.75 71.11-28.98Q71.11-30.29 71.86-31 72.6-31.72 73.9-31.72L73.9-31.72 90.15-31.72Q91.45-31.72 92.17-31.14 92.89-30.55 92.89-29.47L92.89-29.47Q92.89-28.35 92.17-27.74 91.45-27.13 90.15-27.13L90.15-27.13 76.78-27.13 76.78-18.4 89.25-18.4Q90.55-18.4 91.27-17.82 91.99-17.23 91.99-16.11L91.99-16.11Q91.99-15.03 91.27-14.45 90.55-13.86 89.25-13.86L89.25-13.86 76.78-13.86 76.78-4.59 90.15-4.59Q91.45-4.59 92.17-3.98 92.89-3.38 92.89-2.25L92.89-2.25Q92.89-1.17 92.17-0.58 91.45 0 90.15 0L90.15 0 73.9 0ZM113.71 0.4Q107.19 0.4 103.81-2.97 100.44-6.34 100.44-12.82L100.44-12.82 100.44-29.07Q100.44-30.38 101.2-31.16 101.97-31.95 103.27-31.95L103.27-31.95Q104.58-31.95 105.34-31.16 106.11-30.38 106.11-29.07L106.11-29.07 106.11-12.51Q106.11-8.41 108.04-6.32 109.98-4.23 113.71-4.23L113.71-4.23Q117.4-4.23 119.34-6.34 121.27-8.46 121.27-12.51L121.27-12.51 121.27-29.07Q121.27-30.38 122.04-31.16 122.8-31.95 124.11-31.95L124.11-31.95Q125.41-31.95 126.18-31.16 126.94-30.38 126.94-29.07L126.94-29.07 126.94-12.82Q126.94-6.39 123.57-2.99 120.19 0.4 113.71 0.4L113.71 0.4ZM147.59 0.4Q144.12 0.4 141.04-0.52 137.96-1.44 136.02-3.01L136.02-3.01Q134.99-3.78 134.99-5.17L134.99-5.17Q134.99-6.12 135.55-6.82 136.11-7.51 136.88-7.51L136.88-7.51Q137.69-7.51 138.72-6.88L138.72-6.88Q140.66-5.49 142.77-4.86 144.88-4.23 147.45-4.23L147.45-4.23Q150.74-4.23 152.49-5.38 154.25-6.52 154.25-8.73L154.25-8.73Q154.25-10.44 152.6-11.36 150.96-12.29 147.13-13.14L147.13-13.14Q143.18-13.99 140.7-15.12 138.22-16.25 136.97-18 135.71-19.75 135.71-22.45L135.71-22.45Q135.71-25.24 137.28-27.45 138.85-29.65 141.67-30.89 144.48-32.13 147.99-32.13L147.99-32.13Q154.43-32.13 158.47-28.71L158.47-28.71Q159.06-28.21 159.31-27.74 159.56-27.27 159.56-26.55L159.56-26.55Q159.56-25.61 158.99-24.91 158.43-24.21 157.66-24.21L157.66-24.21Q157.22-24.21 156.83-24.34 156.45-24.48 155.82-24.84L155.82-24.84Q153.97-26.19 152.24-26.84 150.51-27.49 147.99-27.49L147.99-27.49Q144.93-27.49 143.15-26.26 141.38-25.02 141.38-22.81L141.38-22.81Q141.38-20.97 142.95-19.98 144.53-18.99 148.31-18.13L148.31-18.13Q152.31-17.23 154.81-16.13 157.31-15.03 158.63-13.32 159.96-11.61 159.96-9.04L159.96-9.04Q159.96-6.25 158.41-4.12 156.85-1.98 154.04-0.79 151.23 0.4 147.59 0.4L147.59 0.4Z" transform="translate(-3.240000009536743, 32.130001068115234)"></path></g> <!----> <!----> <!----> <!----> <!----> <!----> <!----></g></g> <!----></g></g></g><mask id="c82533f0-97bc-4d73-9c92-812f33b8105e"><g fill="white"><g><rect fill-opacity="1" stroke-width="2" x="0" y="0" width="102.5" height="71.50780307099852" class="image-rect"></rect> <svg x="0" y="0" width="102.5" height="71.50780307099852" filtersec="colorsb915131801" class="image-svg-svg primary" style="overflow: visible;"><svg xmlns="http://www.w3.org/2000/svg" viewBox="-0.00145721435546875 0.0017375946044921875 1490.7723388671875 1040.02099609375"><g><path d="M413.94 1037.16C170.07 1029 104 1011.66 59.15 943.88c-18.14-27.39-38.5-88.67-45-135.42C-8.6 644.41-3 302.32 24.35 184.42 49.13 77.64 107.4 25.33 213.69 14.44 318.1 3.73 590.29-2.1 855 .7c285.83 3 420.39 9.13 469.08 21.31 95.24 23.82 141.44 94 157.55 239.2 3 27.45 6.79 123.3 8.32 213 6.16 362.07-21.08 477.25-124.89 528.11-39.2 19.2-64.84 23.62-175.63 30.23-120.33 7.18-611.37 10.11-775.53 4.63z"></path></g></svg></svg> </g></g> <g transform="translate(5.8899993896484375,20.488901138305664)" fill="black" stroke="black" stroke-width="6" stroke-linejoin="round"><g data-gra="path-name" fill-rule="" class="tp-name"><g transform="scale(1)"><g><path d="M16.52 0.4Q9.99 0.4 6.61-2.97 3.24-6.34 3.24-12.82L3.24-12.82 3.24-29.07Q3.24-30.38 4-31.16 4.77-31.95 6.08-31.95L6.08-31.95Q7.38-31.95 8.14-31.16 8.91-30.38 8.91-29.07L8.91-29.07 8.91-12.51Q8.91-8.41 10.84-6.32 12.78-4.23 16.52-4.23L16.52-4.23Q20.2-4.23 22.14-6.34 24.07-8.46 24.07-12.51L24.07-12.51 24.07-29.07Q24.07-30.38 24.84-31.16 25.61-31.95 26.91-31.95L26.91-31.95Q28.21-31.95 28.98-31.16 29.74-30.38 29.74-29.07L29.74-29.07 29.74-12.82Q29.74-6.39 26.37-2.99 22.99 0.4 16.52 0.4L16.52 0.4ZM50.38 0.4Q46.92 0.4 43.84-0.52 40.75-1.44 38.82-3.01L38.82-3.01Q37.78-3.78 37.78-5.17L37.78-5.17Q37.78-6.12 38.35-6.82 38.91-7.51 39.67-7.51L39.67-7.51Q40.48-7.51 41.52-6.88L41.52-6.88Q43.45-5.49 45.57-4.86 47.69-4.23 50.25-4.23L50.25-4.23Q53.53-4.23 55.29-5.38 57.05-6.52 57.05-8.73L57.05-8.73Q57.05-10.44 55.4-11.36 53.76-12.29 49.94-13.14L49.94-13.14Q45.98-13.99 43.5-15.12 41.02-16.25 39.77-18 38.51-19.75 38.51-22.45L38.51-22.45Q38.51-25.24 40.08-27.45 41.66-29.65 44.47-30.89 47.28-32.13 50.79-32.13L50.79-32.13Q57.22-32.13 61.27-28.71L61.27-28.71Q61.86-28.21 62.11-27.74 62.35-27.27 62.35-26.55L62.35-26.55Q62.35-25.61 61.79-24.91 61.23-24.21 60.47-24.21L60.47-24.21Q60.02-24.21 59.63-24.34 59.25-24.48 58.62-24.84L58.62-24.84Q56.77-26.19 55.04-26.84 53.31-27.49 50.79-27.49L50.79-27.49Q47.73-27.49 45.95-26.26 44.17-25.02 44.17-22.81L44.17-22.81Q44.17-20.97 45.75-19.98 47.33-18.99 51.1-18.13L51.1-18.13Q55.11-17.23 57.61-16.13 60.1-15.03 61.43-13.32 62.76-11.61 62.76-9.04L62.76-9.04Q62.76-6.25 61.21-4.12 59.66-1.98 56.84-0.79 54.03 0.4 50.38 0.4L50.38 0.4ZM73.9 0Q72.6 0 71.86-0.72 71.11-1.44 71.11-2.75L71.11-2.75 71.11-28.98Q71.11-30.29 71.86-31 72.6-31.72 73.9-31.72L73.9-31.72 90.15-31.72Q91.45-31.72 92.17-31.14 92.89-30.55 92.89-29.47L92.89-29.47Q92.89-28.35 92.17-27.74 91.45-27.13 90.15-27.13L90.15-27.13 76.78-27.13 76.78-18.4 89.25-18.4Q90.55-18.4 91.27-17.82 91.99-17.23 91.99-16.11L91.99-16.11Q91.99-15.03 91.27-14.45 90.55-13.86 89.25-13.86L89.25-13.86 76.78-13.86 76.78-4.59 90.15-4.59Q91.45-4.59 92.17-3.98 92.89-3.38 92.89-2.25L92.89-2.25Q92.89-1.17 92.17-0.58 91.45 0 90.15 0L90.15 0 73.9 0ZM113.71 0.4Q107.19 0.4 103.81-2.97 100.44-6.34 100.44-12.82L100.44-12.82 100.44-29.07Q100.44-30.38 101.2-31.16 101.97-31.95 103.27-31.95L103.27-31.95Q104.58-31.95 105.34-31.16 106.11-30.38 106.11-29.07L106.11-29.07 106.11-12.51Q106.11-8.41 108.04-6.32 109.98-4.23 113.71-4.23L113.71-4.23Q117.4-4.23 119.34-6.34 121.27-8.46 121.27-12.51L121.27-12.51 121.27-29.07Q121.27-30.38 122.04-31.16 122.8-31.95 124.11-31.95L124.11-31.95Q125.41-31.95 126.18-31.16 126.94-30.38 126.94-29.07L126.94-29.07 126.94-12.82Q126.94-6.39 123.57-2.99 120.19 0.4 113.71 0.4L113.71 0.4ZM147.59 0.4Q144.12 0.4 141.04-0.52 137.96-1.44 136.02-3.01L136.02-3.01Q134.99-3.78 134.99-5.17L134.99-5.17Q134.99-6.12 135.55-6.82 136.11-7.51 136.88-7.51L136.88-7.51Q137.69-7.51 138.72-6.88L138.72-6.88Q140.66-5.49 142.77-4.86 144.88-4.23 147.45-4.23L147.45-4.23Q150.74-4.23 152.49-5.38 154.25-6.52 154.25-8.73L154.25-8.73Q154.25-10.44 152.6-11.36 150.96-12.29 147.13-13.14L147.13-13.14Q143.18-13.99 140.7-15.12 138.22-16.25 136.97-18 135.71-19.75 135.71-22.45L135.71-22.45Q135.71-25.24 137.28-27.45 138.85-29.65 141.67-30.89 144.48-32.13 147.99-32.13L147.99-32.13Q154.43-32.13 158.47-28.71L158.47-28.71Q159.06-28.21 159.31-27.74 159.56-27.27 159.56-26.55L159.56-26.55Q159.56-25.61 158.99-24.91 158.43-24.21 157.66-24.21L157.66-24.21Q157.22-24.21 156.83-24.34 156.45-24.48 155.82-24.84L155.82-24.84Q153.97-26.19 152.24-26.84 150.51-27.49 147.99-27.49L147.99-27.49Q144.93-27.49 143.15-26.26 141.38-25.02 141.38-22.81L141.38-22.81Q141.38-20.97 142.95-19.98 144.53-18.99 148.31-18.13L148.31-18.13Q152.31-17.23 154.81-16.13 157.31-15.03 158.63-13.32 159.96-11.61 159.96-9.04L159.96-9.04Q159.96-6.25 158.41-4.12 156.85-1.98 154.04-0.79 151.23 0.4 147.59 0.4L147.59 0.4Z" transform="translate(-3.240000009536743, 32.130001068115234)"></path></g>       </g></g> </g></mask><defs v-gra="od"></defs></svg>