<?xml version="1.0" encoding="UTF-8" standalone="no"?>
<!DOCTYPE svg PUBLIC "-//W3C//DTD SVG 1.1//EN" "http://www.w3.org/Graphics/SVG/1.1/DTD/svg11.dtd">
<svg width="100%" height="100%" viewBox="0 0 254 76" version="1.1" xmlns="http://www.w3.org/2000/svg" xmlns:xlink="http://www.w3.org/1999/xlink" xml:space="preserve" xmlns:serif="http://www.serif.com/" style="fill-rule:evenodd;clip-rule:evenodd;stroke-linejoin:round;stroke-miterlimit:2;">
    <g transform="matrix(1,0,0,1,-57.8563,-102.407)">
        <g transform="matrix(1,0,0,1,57.8613,102.407)">
            <g>
                <g>
                    <g>
                        <g>
                            <g>
                                <g>
                                    <rect x="0" y="0" width="44.64" height="45" style="fill:rgb(51,51,51);fill-opacity:0;"/>
                                    <g>
                                        <g>
                                            <path d="M74.45,37.22L74.45,0L0,0L0,37.22C-0.003,37.423 -0.005,37.627 -0.005,37.83C-0.005,58.254 16.801,75.06 37.225,75.06C57.649,75.06 74.455,58.254 74.455,37.83C74.455,37.627 74.453,37.423 74.45,37.22Z" style="fill:rgb(236,89,48);fill-rule:nonzero;"/>
                                        </g>
                                    </g>
                                </g>
                            </g>
                        </g>
                        <g transform="matrix(1,0,0,1,44.6402,0)">
                            <g>
                                <g>
                                    <rect x="0" y="0" width="45" height="45" style="fill:rgb(51,51,51);fill-opacity:0;"/>
                                    <g>
                                        <g>
                                            <path d="M25.72,51.44L74.45,51.44L74.45,0L25.72,0C11.61,0 -0,11.61 0,25.72C0,39.83 11.61,51.44 25.72,51.44Z" style="fill:rgb(154,199,78);fill-opacity:0.8;fill-rule:nonzero;"/>
                                            <path d="M48.73,23L0,23L0,74.45L48.73,74.45C62.84,74.45 74.45,62.84 74.45,48.73C74.45,34.62 62.84,23.01 48.73,23.01L48.73,23Z" style="fill:rgb(211,228,176);fill-opacity:0.8;fill-rule:nonzero;"/>
                                        </g>
                                    </g>
                                </g>
                            </g>
                        </g>
                        <g transform="matrix(1,0,0,1,89.6402,0)">
                            <g>
                                <g>
                                    <rect x="0" y="0" width="45" height="45" style="fill:rgb(51,51,51);fill-opacity:0;"/>
                                    <g>
                                        <g>
                                            <path d="M0,0L74.45,0L74.45,23.86L0,23.86L0,0ZM0,25.77L74.45,25.77L74.45,48.68L0,48.68L0,25.77ZM0,50.59L74.45,50.59L74.45,74.45L0,74.45L0,50.59Z" style="fill:rgb(39,153,200);fill-opacity:0.8;fill-rule:nonzero;"/>
                                            <rect x="0" y="0" width="37.23" height="74.45" style="fill:rgb(0,105,174);fill-opacity:0.8;fill-rule:nonzero;"/>
                                        </g>
                                    </g>
                                </g>
                            </g>
                        </g>
                        <g transform="matrix(1,0,0,1,134.64,0)">
                            <g>
                                <g>
                                    <rect x="0" y="0" width="44.64" height="45" style="fill:rgb(51,51,51);fill-opacity:0;"/>
                                    <g>
                                        <g>
                                            <path d="M74.45,37.22L74.45,0L0,0L0,37.22C-0.003,37.423 -0.005,37.627 -0.005,37.83C-0.005,58.254 16.801,75.06 37.225,75.06C57.649,75.06 74.455,58.254 74.455,37.83C74.455,37.627 74.453,37.423 74.45,37.22Z" style="fill:rgb(236,89,48);fill-rule:nonzero;"/>
                                        </g>
                                    </g>
                                </g>
                            </g>
                        </g>
                        <g transform="matrix(1,0,0,1,179.28,0)">
                            <g>
                                <g>
                                    <rect x="0" y="0" width="45" height="45" style="fill:rgb(51,51,51);fill-opacity:0;"/>
                                    <g>
                                        <g>
                                            <path d="M25.72,51.44L74.45,51.44L74.45,0L25.72,0C11.61,0 -0,11.61 0,25.72C0,39.83 11.61,51.44 25.72,51.44Z" style="fill:rgb(154,199,78);fill-opacity:0.8;fill-rule:nonzero;"/>
                                            <path d="M48.73,23L0,23L0,74.45L48.73,74.45C62.84,74.45 74.45,62.84 74.45,48.73C74.45,34.62 62.84,23.01 48.73,23.01L48.73,23Z" style="fill:rgb(211,228,176);fill-opacity:0.8;fill-rule:nonzero;"/>
                                        </g>
                                    </g>
                                </g>
                            </g>
                        </g>
                    </g>
                </g>
            </g>
        </g>
    </g>
</svg>
