<?xml version="1.0" encoding="UTF-8" standalone="no"?>
<!DOCTYPE svg PUBLIC "-//W3C//DTD SVG 1.1//EN" "http://www.w3.org/Graphics/SVG/1.1/DTD/svg11.dtd">
<svg width="100%" height="100%" viewBox="0 0 127 25" version="1.1" xmlns="http://www.w3.org/2000/svg" xmlns:xlink="http://www.w3.org/1999/xlink" xml:space="preserve" xmlns:serif="http://www.serif.com/" style="fill-rule:evenodd;clip-rule:evenodd;stroke-linejoin:round;stroke-miterlimit:2;">
    <g transform="matrix(1,0,0,1,-119.803,-102.33)">
        <g transform="matrix(1,0,0,1,57.1589,102.415)">
            <g transform="matrix(1,0,0,1,62.6439,0.005)">
                <g>
                    <g>
                        <g>
                            <g>
                                <g>
                                    <path d="M24.67,24.52L0,24.52L0,0L12,0L12,12.26L12.67,12.26L12.67,0L24.67,0L24.67,24.52Z" style="fill:rgb(62,179,114);fill-rule:nonzero;"/>
                                    <path d="M12,12.26L0.05,12.26C0.053,18.865 5.397,24.338 12,24.5L12,12.26ZM12.67,12.26L24.57,12.26C24.567,18.854 19.241,24.322 12.65,24.5L12.67,12.26Z" style="fill:white;fill-opacity:0.5;fill-rule:nonzero;"/>
                                </g>
                            </g>
                        </g>
                    </g>
                </g>
            </g>
            <g transform="matrix(1,0,0,1,87.616,0.005)">
                <g>
                    <g>
                        <g>
                            <g>
                                <g>
                                    <g>
                                        <path d="M17.34,8.61C16.982,8.611 16.624,8.638 16.27,8.69L16.27,7.96L24.27,7.96L24.27,0L8.15,0C8.055,-0.003 7.96,-0.005 7.865,-0.005C3.394,-0.005 -0.285,3.674 -0.285,8.145C-0.285,12.616 3.394,16.295 7.865,16.295C7.96,16.295 8.055,16.293 8.15,16.29C8.559,16.287 8.966,16.253 9.37,16.19L9.37,16.94L0.85,16.94L0.85,24.58L17.34,24.58C21.729,24.58 25.34,20.969 25.34,16.58C25.34,12.191 21.729,8.58 17.34,8.58L17.34,8.61Z" style="fill:rgb(32,161,210);fill-rule:nonzero;"/>
                                        <path d="M16.28,8L8.15,8L8.15,0C12.559,0.005 16.204,3.591 16.28,8ZM9.37,17C9.562,21.252 13.114,24.644 17.37,24.64L17.37,16.94L9.37,17ZM16.27,8.75C12.484,9.27 9.573,12.434 9.37,16.25C13.149,15.671 16.037,12.506 16.27,8.69L16.27,8.75Z" style="fill:white;fill-opacity:0.3;fill-rule:nonzero;"/>
                                    </g>
                                </g>
                            </g>
                        </g>
                    </g>
                </g>
            </g>
            <g transform="matrix(1,0,0,1,112.956,2.84217e-14)">
                <g>
                    <g>
                        <g>
                            <g>
                                <g>
                                    <path d="M24.63,7.96L24.63,0L0,0L0,24.63L6.16,24.63L6.16,24.65L24.63,24.65L24.63,16.84L12.31,16.84L12.31,16.3L24.63,16.3L24.63,8.49L12.31,8.49L12.31,7.96L24.63,7.96Z" style="fill:rgb(237,187,77);fill-rule:nonzero;"/>
                                    <path d="M6.16,0L12.32,0L12.32,8L6.16,8L6.16,0ZM6.16,8.49L6.16,16.3L12.32,16.3L12.32,8.49L6.16,8.49ZM6.16,24.63L12.32,24.63L12.32,16.84L6.16,16.84L6.16,24.63Z" style="fill:white;fill-opacity:0.5;fill-rule:nonzero;"/>
                                </g>
                            </g>
                        </g>
                    </g>
                </g>
            </g>
            <g transform="matrix(1,0,0,1,138.586,0)">
                <g>
                    <g>
                        <g>
                            <g>
                                <g>
                                    <path d="M24.67,24.52L0,24.52L0,0L12,0L12,12.26L12.67,12.26L12.67,0L24.67,0L24.67,24.52Z" style="fill:rgb(62,179,114);fill-rule:nonzero;"/>
                                    <path d="M12,12.26L0.05,12.26C0.053,18.865 5.397,24.338 12,24.5L12,12.26ZM12.67,12.26L24.57,12.26C24.567,18.854 19.241,24.322 12.65,24.5L12.67,12.26Z" style="fill:white;fill-opacity:0.5;fill-rule:nonzero;"/>
                                </g>
                            </g>
                        </g>
                    </g>
                </g>
            </g>
            <g transform="matrix(1,0,0,1,163.354,-0.08)">
                <g>
                    <g>
                        <g>
                            <g>
                                <g>
                                    <g>
                                        <path d="M17.34,8.61C16.982,8.611 16.624,8.638 16.27,8.69L16.27,7.96L24.27,7.96L24.27,0L8.15,0C8.055,-0.003 7.96,-0.005 7.865,-0.005C3.394,-0.005 -0.285,3.674 -0.285,8.145C-0.285,12.616 3.394,16.295 7.865,16.295C7.96,16.295 8.055,16.293 8.15,16.29C8.559,16.287 8.966,16.253 9.37,16.19L9.37,16.94L0.85,16.94L0.85,24.58L17.34,24.58C21.729,24.58 25.34,20.969 25.34,16.58C25.34,12.191 21.729,8.58 17.34,8.58L17.34,8.61Z" style="fill:rgb(32,161,210);fill-rule:nonzero;"/>
                                        <path d="M16.28,8L8.15,8L8.15,0C12.559,0.005 16.204,3.591 16.28,8ZM9.37,17C9.562,21.252 13.114,24.644 17.37,24.64L17.37,16.94L9.37,17ZM16.27,8.75C12.484,9.27 9.573,12.434 9.37,16.25C13.149,15.671 16.037,12.506 16.27,8.69L16.27,8.75Z" style="fill:white;fill-opacity:0.3;fill-rule:nonzero;"/>
                                    </g>
                                </g>
                            </g>
                        </g>
                    </g>
                </g>
            </g>
        </g>
    </g>
</svg>
