<svg data-v-0dd9719b="" version="1.0" xmlns="http://www.w3.org/2000/svg" xmlns:xlink="http://www.w3.org/1999/xlink" width="100%" height="100%" viewBox="0 0 340.000000 250.000000" preserveAspectRatio="xMidYMid meet" color-interpolation-filters="sRGB" style="margin: auto;"> <rect data-v-0dd9719b="" x="0" y="0" width="100%" height="100%" fill="#fff" fill-opacity="1" class="background"></rect> <rect data-v-0dd9719b="" x="0" y="0" width="100%" height="100%" fill="url(#watermark)" fill-opacity="1" class="watermarklayer"></rect> <g data-v-0dd9719b="" fill="#333" class="icon-text-wrapper icon-svg-group iconsvg" transform="translate(83.94908905029297,95.46575355529785)"><g class="iconsvg-imagesvg" transform="translate(0,0)"><g><rect fill="#333" fill-opacity="0" stroke-width="2" x="0" y="0" width="60" height="59.06848991405534" class="image-rect"></rect> <svg x="0" y="0" width="60" height="59.06848991405534" filtersec="colorsb7881189753" class="image-svg-svg primary" style="overflow: visible;"><svg xmlns="http://www.w3.org/2000/svg" viewBox="0.4385022521018982 -0.000009216904800268821 101.5615005493164 99.98497772216797"><path d="M69.3 59.41l-9.89 9.89L51 77.73 30.46 98.26A6 6 0 0 1 22 89.83L42.56 69.3 51 60.88l9.9-9.9zM102 24.28a6 6 0 0 1-1.75 4.21L77.72 51l-8.42-8.44 22.5-22.5a6 6 0 0 1 10.2 4.22z" fill="#0059cc"></path><path d="M83.64 6a5.94 5.94 0 0 1-1.74 4.21L41.08 51l-8.42-8.42 9.9-9.89L51 24.24 73.48 1.75A6 6 0 0 1 83.64 6zM32.66 59.41L12.13 79.93a6 6 0 0 1-8.42-8.42L24.24 51z" fill="#00dac7"></path><path d="M51 24.24l-8.42 8.43-22.5-22.5A6 6 0 0 1 24.28 0a5.89 5.89 0 0 1 4.2 1.75zM98.25 79.93a5.94 5.94 0 0 1-8.42 0L51 41.09l8.42-8.42 9.9 9.89 8.4 8.44 20.53 20.51a6 6 0 0 1 0 8.42z" fill="#00baec"></path><path d="M51 60.88l-8.44 8.42L1.74 28.49a6 6 0 0 1 8.43-8.43l22.49 22.5L41.08 51zM79.93 98.26a6 6 0 0 1-8.42 0L51 77.73l8.42-8.43 20.51 20.53a6 6 0 0 1 0 8.43z" fill="#00abd8"></path></svg></svg> <!----></g></g> <g transform="translate(67,5.7742462158203125)"><g data-gra="path-name" fill-rule="" class="tp-name iconsvg-namesvg"><g transform="scale(1)"><g><path d="M24-2.52L24-2.52Q24.06-1.92 23.52-1.71 22.98-1.5 22.14-1.65 21.3-1.8 20.46-2.31 19.62-2.82 19.08-3.6L19.08-3.6Q18.72-4.02 18.54-5.22 18.36-6.42 18.54-9.18 18.72-11.94 19.38-17.16L19.38-17.16Q17.58-12.06 16.05-8.76 14.52-5.46 13.17-3.66 11.82-1.86 10.56-1.08 9.3-0.3 8.1-0.21 6.9-0.12 5.7-0.36L5.7-0.36Q4.2-0.6 3.15-0.99 2.1-1.38 1.62-1.74L1.62-1.74Q0.54-2.58 0.42-5.94 0.3-9.3 0.84-14.19 1.38-19.08 2.25-24.39 3.12-29.7 4.05-34.38 4.98-39.06 5.58-42L5.58-42Q6-43.98 6.12-44.76L6.12-44.76Q6.12-44.82 6.72-44.82 7.32-44.82 8.25-44.7 9.18-44.58 10.08-44.34 10.98-44.1 11.58-43.68 12.18-43.26 12.18-42.66L12.18-42.66Q12-41.1 11.52-38.1 11.04-35.1 10.38-31.26L10.38-31.26Q9.72-27.36 9-23.13 8.28-18.9 7.71-14.94 7.14-10.98 6.9-7.86 6.66-4.74 6.9-3 7.14-1.26 7.98-1.5L7.98-1.5Q10.14-1.98 12.03-4.71 13.92-7.44 15.57-11.58 17.22-15.72 18.57-20.43 19.92-25.14 21-29.61 22.08-34.08 22.8-37.5L22.8-37.5Q23.34-39.9 23.7-41.4L23.7-41.4Q23.7-41.4 24.39-41.37 25.08-41.34 26.07-41.22 27.06-41.1 27.99-40.86 28.92-40.62 29.4-40.14L29.4-40.14Q29.58-39.9 29.55-39.66 29.52-39.42 29.46-39.24L29.46-39.24 29.46-39.18Q29.58-39.9 29.46-39.33 29.34-38.76 29.01-37.17 28.68-35.58 28.23-33.18 27.78-30.78 27.27-27.81 26.76-24.84 26.25-21.57 25.74-18.3 25.29-14.97 24.84-11.64 24.51-8.46 24.18-5.28 24-2.52ZM40.02-17.16L40.02-17.16Q39.66-17.88 39.12-18.09 38.58-18.3 38.07-18.06 37.56-17.82 37.26-17.22L37.26-17.22Q36.66-15.96 36.39-14.67 36.12-13.38 36.18-11.76L36.18-11.76Q36.96-11.94 37.95-12.66 38.94-13.38 39.54-14.4L39.54-14.4Q39.54-14.46 39.6-14.52L39.6-14.52Q39.78-14.88 39.93-15.33 40.08-15.78 40.14-16.26 40.2-16.74 40.02-17.16ZM34.2-2.04L34.2-2.04Q34.2-3.3 33.96-4.5 33.72-5.7 33.12-7.02L33.12-7.02Q32.1-8.94 32.1-10.89 32.1-12.84 32.67-14.49 33.24-16.14 34.08-17.1L34.08-17.1Q34.86-18.06 35.76-18.57 36.66-19.08 37.92-19.14L37.92-19.14Q38.7-19.2 39.54-18.9 40.38-18.6 40.8-17.88L40.8-17.88Q41.16-17.22 41.13-16.44 41.1-15.66 40.8-14.88 40.5-14.1 40.08-13.44L40.08-13.44Q39.06-12.24 38.16-11.67 37.26-11.1 36.48-10.8L36.48-10.8Q36.36-10.74 36.24-10.68L36.24-10.68Q36.3-10.08 36.51-9.45 36.72-8.82 37.02-8.16L37.02-8.16Q37.38-7.5 37.68-6.66 37.98-5.82 38.16-4.8L38.16-4.8 38.16-4.68Q38.22-4.38 38.25-3.99 38.28-3.6 38.22-3.36L38.22-3.36Q39.84-3.9 41.25-5.64 42.66-7.38 43.74-9.69 44.82-12 45.3-14.22L45.3-14.22Q45.36-14.4 45.57-14.46 45.78-14.52 45.9-14.52L45.9-14.52Q46.14-14.52 46.26-14.25 46.38-13.98 46.32-13.8L46.32-13.8Q45.72-11.34 44.58-8.91 43.44-6.48 41.82-4.65 40.2-2.82 38.22-2.1L38.22-2.1Q38.1-1.14 37.68-0.09 37.26 0.96 36.54 1.77 35.82 2.58 34.74 2.7L34.74 2.7Q33.42 2.7 32.76 2.46 32.1 2.22 31.62 1.74L31.62 1.74Q31.26 1.32 31.23 0.81 31.2 0.3 31.38-0.06L31.38-0.06Q31.68-0.66 32.4-1.17 33.12-1.68 34.2-2.04ZM34.14-0.9L34.14-0.9Q33.54-0.78 33.12-0.48 32.7-0.18 32.52 0.24L32.52 0.24Q32.34 0.72 32.43 1.08 32.52 1.44 33.12 1.62L33.12 1.62Q33.42 1.68 33.63 1.2 33.84 0.72 33.96 0.09 34.08-0.54 34.14-0.9ZM53.76-14.28L53.76-14.28Q53.82-14.4 53.97-14.97 54.12-15.54 54.09-16.14 54.06-16.74 53.64-17.1L53.64-17.1Q53.28-17.34 52.92-17.28 52.56-17.22 52.29-17.04 52.02-16.86 51.84-16.68L51.84-16.68Q51.42-16.26 50.82-15.3 50.22-14.34 49.71-13.35 49.2-12.36 49.02-11.76L49.02-11.76Q50.4-11.28 51.33-11.61 52.26-11.94 52.83-12.69 53.4-13.44 53.76-14.28ZM60.06-13.62L60.06-13.62Q60.18-13.92 60.36-14.07 60.54-14.22 60.78-14.16L60.78-14.16Q61.26-14.1 61.08-13.38L61.08-13.38Q59.94-10.08 58.53-7.38 57.12-4.68 55.41-2.82 53.7-0.96 51.63-0.21 49.56 0.54 47.16 0L47.16 0Q45.24-0.48 44.31-2.25 43.38-4.02 43.44-6.75 43.5-9.48 44.58-12.78L44.58-12.78Q45.3-14.88 46.5-16.44 47.7-18 49.17-18.69 50.64-19.38 52.2-18.96L52.2-18.96Q53.28-18.66 54.09-18 54.9-17.34 55.11-16.26 55.32-15.18 54.66-13.68L54.66-13.68Q54.24-12.72 53.46-11.85 52.68-10.98 51.45-10.56 50.22-10.14 48.54-10.62L48.54-10.62Q47.88-8.28 47.67-6.72 47.46-5.16 47.52-4.17 47.58-3.18 47.88-2.61 48.18-2.04 48.48-1.74L48.48-1.74Q49.68-0.84 51.09-1.26 52.5-1.68 53.91-3.03 55.32-4.38 56.58-6.24 57.84-8.1 58.77-10.05 59.7-12 60.06-13.62ZM83.16-2.52L83.16-2.52Q83.22-1.92 82.68-1.71 82.14-1.5 81.3-1.65 80.46-1.8 79.62-2.31 78.78-2.82 78.24-3.6L78.24-3.6Q77.88-4.02 77.7-5.22 77.52-6.42 77.7-9.18 77.88-11.94 78.54-17.16L78.54-17.16Q76.74-12.06 75.21-8.76 73.68-5.46 72.33-3.66 70.98-1.86 69.72-1.08 68.46-0.3 67.26-0.21 66.06-0.12 64.86-0.36L64.86-0.36Q63.36-0.6 62.31-0.99 61.26-1.38 60.78-1.74L60.78-1.74Q59.7-2.58 59.58-5.94 59.46-9.3 60-14.19 60.54-19.08 61.41-24.39 62.28-29.7 63.21-34.38 64.14-39.06 64.74-42L64.74-42Q65.16-43.98 65.28-44.76L65.28-44.76Q65.28-44.82 65.88-44.82 66.48-44.82 67.41-44.7 68.34-44.58 69.24-44.34 70.14-44.1 70.74-43.68 71.34-43.26 71.34-42.66L71.34-42.66Q71.16-41.1 70.68-38.1 70.2-35.1 69.54-31.26L69.54-31.26Q68.88-27.36 68.16-23.13 67.44-18.9 66.87-14.94 66.3-10.98 66.06-7.86 65.82-4.74 66.06-3 66.3-1.26 67.14-1.5L67.14-1.5Q69.3-1.98 71.19-4.71 73.08-7.44 74.73-11.58 76.38-15.72 77.73-20.43 79.08-25.14 80.16-29.61 81.24-34.08 81.96-37.5L81.96-37.5Q82.5-39.9 82.86-41.4L82.86-41.4Q82.86-41.4 83.55-41.37 84.24-41.34 85.23-41.22 86.22-41.1 87.15-40.86 88.08-40.62 88.56-40.14L88.56-40.14Q88.74-39.9 88.71-39.66 88.68-39.42 88.62-39.24L88.62-39.24 88.62-39.18Q88.74-39.9 88.62-39.33 88.5-38.76 88.17-37.17 87.84-35.58 87.39-33.18 86.94-30.78 86.43-27.81 85.92-24.84 85.41-21.57 84.9-18.3 84.45-14.97 84-11.64 83.67-8.46 83.34-5.28 83.16-2.52ZM99.18-17.16L99.18-17.16Q98.82-17.88 98.28-18.09 97.74-18.3 97.23-18.06 96.72-17.82 96.42-17.22L96.42-17.22Q95.82-15.96 95.55-14.67 95.28-13.38 95.34-11.76L95.34-11.76Q96.12-11.94 97.11-12.66 98.1-13.38 98.7-14.4L98.7-14.4Q98.7-14.46 98.76-14.52L98.76-14.52Q98.94-14.88 99.09-15.33 99.24-15.78 99.3-16.26 99.36-16.74 99.18-17.16ZM93.36-2.04L93.36-2.04Q93.36-3.3 93.12-4.5 92.88-5.7 92.28-7.02L92.28-7.02Q91.26-8.94 91.26-10.89 91.26-12.84 91.83-14.49 92.4-16.14 93.24-17.1L93.24-17.1Q94.02-18.06 94.92-18.57 95.82-19.08 97.08-19.14L97.08-19.14Q97.86-19.2 98.7-18.9 99.54-18.6 99.96-17.88L99.96-17.88Q100.32-17.22 100.29-16.44 100.26-15.66 99.96-14.88 99.66-14.1 99.24-13.44L99.24-13.44Q98.22-12.24 97.32-11.67 96.42-11.1 95.64-10.8L95.64-10.8Q95.52-10.74 95.4-10.68L95.4-10.68Q95.46-10.08 95.67-9.45 95.88-8.82 96.18-8.16L96.18-8.16Q96.54-7.5 96.84-6.66 97.14-5.82 97.32-4.8L97.32-4.8 97.32-4.68Q97.38-4.38 97.41-3.99 97.44-3.6 97.38-3.36L97.38-3.36Q99-3.9 100.41-5.64 101.82-7.38 102.9-9.69 103.98-12 104.46-14.22L104.46-14.22Q104.52-14.4 104.73-14.46 104.94-14.52 105.06-14.52L105.06-14.52Q105.3-14.52 105.42-14.25 105.54-13.98 105.48-13.8L105.48-13.8Q104.88-11.34 103.74-8.91 102.6-6.48 100.98-4.65 99.36-2.82 97.38-2.1L97.38-2.1Q97.26-1.14 96.84-0.09 96.42 0.96 95.7 1.77 94.98 2.58 93.9 2.7L93.9 2.7Q92.58 2.7 91.92 2.46 91.26 2.22 90.78 1.74L90.78 1.74Q90.42 1.32 90.39 0.81 90.36 0.3 90.54-0.06L90.54-0.06Q90.84-0.66 91.56-1.17 92.28-1.68 93.36-2.04ZM93.3-0.9L93.3-0.9Q92.7-0.78 92.28-0.48 91.86-0.18 91.68 0.24L91.68 0.24Q91.5 0.72 91.59 1.08 91.68 1.44 92.28 1.62L92.28 1.62Q92.58 1.68 92.79 1.2 93 0.72 93.12 0.09 93.24-0.54 93.3-0.9Z" transform="translate(-0.39818182587623596, 44.81999969482422)"></path></g> <!----> <!----> <!----> <!----> <!----> <!----> <!----></g></g> <!----></g></g><defs v-gra="od"></defs></svg>