<svg data-v-0dd9719b="" version="1.0" xmlns="http://www.w3.org/2000/svg" xmlns:xlink="http://www.w3.org/1999/xlink" width="100%" height="100%" viewBox="0 0 340.000000 250.000000" preserveAspectRatio="xMidYMid meet" color-interpolation-filters="sRGB" style="margin: auto;"> <rect data-v-0dd9719b="" x="0" y="0" width="100%" height="100%" fill="#feffff" fill-opacity="1" class="background"></rect> <rect data-v-0dd9719b="" x="0" y="0" width="100%" height="100%" fill="url(#watermark)" fill-opacity="1" class="watermarklayer"></rect> <g data-v-0dd9719b="" fill="#333" class="iconlettersvg-g iconlettersvg" transform="translate(55.452796936035156,102.44965104013681)"><g><g class="tp-name"><g transform="scale(1)"><g transform="translate(0, 0)"><g class="name-imagesvg"><g><rect fill="#333" fill-opacity="0" stroke-width="2" x="0" y="0" width="45.275284776013336" height="45" class="image-rect"></rect> <svg x="0" y="0" width="45.275284776013336" height="45" filtersec="colorsb6925676548" class="image-svg-svg primary" style="overflow: visible;"><svg xmlns="http://www.w3.org/2000/svg" viewBox="0 0 24.63 24.52"><title>资源 2</title><path d="M12.65 24.52H0V0h12v12.26h.67V0h12v24.52z" fill="#3eb372"></path><path d="M12 12.26H.05A12.25 12.25 0 0 0 12 24.5zm.67 0h11.9A12.25 12.25 0 0 1 12.65 24.5z" fill="#fff" opacity=".5"></path></svg></svg> <!----></g></g></g><g transform="translate(45.275284776013336, 0)"><g class="name-imagesvg"><g><rect fill="#333" fill-opacity="0" stroke-width="2" x="0" y="0" width="46.79017479886936" height="45" class="image-rect"></rect> <svg x="0" y="0" width="46.79017479886936" height="45" filtersec="colorsb2204855428" class="image-svg-svg primary" style="overflow: visible;"><svg xmlns="http://www.w3.org/2000/svg" viewBox="0 0 25.32 24.58"><title>资源 12</title><g><path d="M17.34 8.61a7.48 7.48 0 0 0-1.07.08v-.54-.19h8V0H8.15a8.15 8.15 0 1 0 0 16.29 8.25 8.25 0 0 0 1.22-.1v.75H.85v7.64h16.49a8 8 0 0 0 0-16z" fill="#20a1d2"></path><path d="M16.28 8H8.15V0a8.14 8.14 0 0 1 8.13 8zm-6.91 9a8 8 0 0 0 8 7.64v-7.7zm6.9-8.25a8 8 0 0 0-6.9 7.5 8.15 8.15 0 0 0 6.9-7.56z" fill="#fff" opacity=".3"></path></g></svg></svg> <!----></g></g></g><g transform="translate(92.0654595748827, 0)"><g class="name-imagesvg"><g><rect fill="#333" fill-opacity="0" stroke-width="2" x="0" y="0" width="44.963488007574306" height="45" class="image-rect"></rect> <svg x="0" y="0" width="44.963488007574306" height="45" filtersec="colorsb3579218502" class="image-svg-svg primary" style="overflow: visible;"><svg xmlns="http://www.w3.org/2000/svg" viewBox="0 0 24.63 24.65"><title>资源 21</title><path fill="#edbb4d" d="M24.63 7.96V0H0v24.63h6.16v.02h18.47v-7.81H12.31v-.54h12.32V8.49H12.31v-.53h12.32z"></path><path d="M6.16 0h6.16v8H6.16zm0 8.49v7.81h6.16V8.49zm0 16.14h6.16v-7.79H6.16z" fill="#fff" opacity=".5"></path></svg></svg> <!----></g></g></g><g transform="translate(137.028947582457, 0)"><g class="name-imagesvg"><g><rect fill="#333" fill-opacity="0" stroke-width="2" x="0" y="0" width="45.275284776013336" height="45" class="image-rect"></rect> <svg x="0" y="0" width="45.275284776013336" height="45" filtersec="colorsb4389867055" class="image-svg-svg primary" style="overflow: visible;"><svg xmlns="http://www.w3.org/2000/svg" viewBox="0 0 24.63 24.52"><title>资源 2</title><path d="M12.65 24.52H0V0h12v12.26h.67V0h12v24.52z" fill="#3eb372"></path><path d="M12 12.26H.05A12.25 12.25 0 0 0 12 24.5zm.67 0h11.9A12.25 12.25 0 0 1 12.65 24.5z" fill="#fff" opacity=".5"></path></svg></svg> <!----></g></g></g><g transform="translate(182.30423235847033, 0)"><g class="name-imagesvg"><g><rect fill="#333" fill-opacity="0" stroke-width="2" x="0" y="0" width="46.79017479886936" height="45" class="image-rect"></rect> <svg x="0" y="0" width="46.79017479886936" height="45" filtersec="colorsb4839050861" class="image-svg-svg primary" style="overflow: visible;"><svg xmlns="http://www.w3.org/2000/svg" viewBox="0 0 25.32 24.58"><title>资源 12</title><g><path d="M17.34 8.61a7.48 7.48 0 0 0-1.07.08v-.54-.19h8V0H8.15a8.15 8.15 0 1 0 0 16.29 8.25 8.25 0 0 0 1.22-.1v.75H.85v7.64h16.49a8 8 0 0 0 0-16z" fill="#20a1d2"></path><path d="M16.28 8H8.15V0a8.14 8.14 0 0 1 8.13 8zm-6.91 9a8 8 0 0 0 8 7.64v-7.7zm6.9-8.25a8 8 0 0 0-6.9 7.5 8.15 8.15 0 0 0 6.9-7.56z" fill="#fff" opacity=".3"></path></g></svg></svg> <!----></g></g></g></g></g></g> <!----></g><defs v-gra="od"></defs></svg>