<?xml version="1.0" encoding="UTF-8" standalone="no"?>
<!DOCTYPE svg PUBLIC "-//W3C//DTD SVG 1.1//EN" "http://www.w3.org/Graphics/SVG/1.1/DTD/svg11.dtd">
<svg width="100%" height="100%" viewBox="0 0 163 25" version="1.1" xmlns="http://www.w3.org/2000/svg" xmlns:xlink="http://www.w3.org/1999/xlink" xml:space="preserve" xmlns:serif="http://www.serif.com/" style="fill-rule:evenodd;clip-rule:evenodd;stroke-linejoin:round;stroke-miterlimit:2;">
    <g transform="matrix(1,0,0,1,-52.1528,-105.428)">
        <g transform="matrix(0.7,0,0,0.7,10.2238,110.994)">
            <g>
                <g>
                    <g>
                        <g transform="matrix(0.125987,0,0,0.125987,59.8987,-7.94997)">
                            <g>
                                <g>
                                    <rect x="0" y="0" width="49.675" height="40" style="fill:rgb(51,51,51);fill-opacity:0;"/>
                                    <g>
                                        <g>
                                            <path d="M172.76,278.17C160.913,278.186 149.823,272.232 143.29,262.35L5.87,54.81C2.041,49.028 -0.002,42.245 -0.002,35.31C-0.002,15.936 15.941,-0.007 35.315,-0.007C47.15,-0.007 58.225,5.943 64.76,15.81L202.17,223.36C205.994,229.14 208.034,235.919 208.034,242.85C208.034,262.209 192.119,278.145 172.76,278.17Z" style="fill:rgb(200,225,7);fill-opacity:0.8;fill-rule:nonzero;"/>
                                            <path d="M172.7,278.17C153.341,278.145 137.426,262.209 137.426,242.85C137.426,235.919 139.466,229.14 143.29,223.36L280.7,15.82C287.234,5.955 298.307,0.008 310.14,0.008C329.512,0.008 345.452,15.948 345.452,35.32C345.452,42.255 343.41,49.038 339.58,54.82L202.17,262.35C195.637,272.232 184.547,278.186 172.7,278.17Z" style="fill:rgb(255,151,60);fill-opacity:0.8;fill-rule:nonzero;"/>
                                        </g>
                                    </g>
                                </g>
                            </g>
                        </g>
                        <g transform="matrix(0.125987,0,0,0.125987,103.421,-7.9508)">
                            <g>
                                <g>
                                    <rect x="0" y="0" width="36.31" height="40" style="fill:rgb(51,51,51);fill-opacity:0;"/>
                                    <g>
                                        <g>
                                            <path d="M187.9,174.39L38,174.39C18.63,174.39 2.69,158.45 2.69,139.08C2.69,119.71 18.63,103.77 38,103.77L187.9,103.77C207.27,103.77 223.21,119.71 223.21,139.08C223.21,158.45 207.27,174.39 187.9,174.39Z" style="fill:rgb(234,121,168);fill-opacity:0.8;fill-rule:nonzero;"/>
                                            <path d="M217.19,278.16L35.31,278.16C15.94,278.16 0,262.22 0,242.85L0,35.31C-0,15.94 15.94,0 35.31,0L217.19,0C236.56,-0 252.5,15.94 252.5,35.31C252.5,54.68 236.56,70.62 217.19,70.62L70.62,70.62L70.62,207.54L217.19,207.54C236.56,207.54 252.5,223.48 252.5,242.85C252.5,262.22 236.56,278.16 217.19,278.16Z" style="fill:rgb(248,220,27);fill-opacity:0.8;fill-rule:nonzero;"/>
                                        </g>
                                    </g>
                                </g>
                            </g>
                        </g>
                        <g transform="matrix(0.125987,0,0,0.125987,135.233,-7.9508)">
                            <g>
                                <g>
                                    <rect x="0" y="0" width="39.857" height="40" style="fill:rgb(51,51,51);fill-opacity:0;"/>
                                    <g>
                                        <g>
                                            <path d="M35.31,278.16C15.94,278.16 0,262.22 0,242.85L0,35.31C-0,15.94 15.94,0 35.31,0L175,0C231.216,0.553 277.164,46.956 277.164,103.175C277.164,159.394 231.216,205.797 175,206.35L70.62,206.35L70.62,242.85C70.62,262.22 54.68,278.16 35.31,278.16ZM70.62,135.73L175,135.73C192.644,135.421 206.989,120.821 206.989,103.175C206.989,85.529 192.644,70.929 175,70.62L70.62,70.62L70.62,135.73Z" style="fill:rgb(200,225,7);fill-opacity:0.8;fill-rule:nonzero;"/>
                                            <path d="M238.61,278.16C219.24,278.16 203.3,262.22 203.3,242.85L203.3,208.76C203.308,200.797 200.388,193.103 195.1,187.15C189.358,180.689 186.184,172.339 186.184,163.695C186.184,144.324 202.124,128.384 221.495,128.384C231.578,128.384 241.193,132.703 247.89,140.24C264.659,159.115 273.917,183.512 273.89,208.76L273.89,242.85C273.89,262.209 257.969,278.144 238.61,278.16Z" style="fill:rgb(50,168,231);fill-opacity:0.8;fill-rule:nonzero;"/>
                                        </g>
                                    </g>
                                </g>
                            </g>
                        </g>
                        <g transform="matrix(0.125987,0,0,0.125987,170.152,-7.9508)">
                            <g>
                                <g>
                                    <rect x="0" y="0" width="43.334" height="40" style="fill:rgb(51,51,51);fill-opacity:0;"/>
                                    <g>
                                        <g>
                                            <path d="M211.32,278.16L83.54,278.16C58.96,278.16 35.16,268.74 18.27,252.32C14.364,248.526 10.835,244.363 7.73,239.89C4.017,234.168 2.04,227.49 2.04,220.669C2.04,201.298 17.979,185.359 37.35,185.359C48.533,185.359 59.076,190.672 65.73,199.66C66.242,200.38 66.821,201.05 67.46,201.66C71.29,205.38 77.13,207.52 83.46,207.52L211.32,207.52C222.41,207.52 230.7,200.9 230.7,194.97C230.7,189.97 224.51,183.8 214.52,182.61L214.32,182.61L139.44,173.27C121.849,171.076 108.499,155.958 108.499,138.23C108.499,118.859 124.439,102.919 143.81,102.919C145.271,102.919 146.73,103.009 148.18,103.19L223,112.52C267.67,117.89 301.35,153.32 301.35,194.99C301.32,240.85 260.94,278.16 211.32,278.16Z" style="fill:rgb(58,194,211);fill-opacity:0.8;fill-rule:nonzero;"/>
                                            <path d="M143.86,173.54C142.383,173.539 140.907,173.449 139.44,173.27L78.33,165.64C33.67,160.27 0,124.83 0,83.17C0,37.31 40.37,0 90,0L204.86,0C227.573,-0.167 249.591,7.925 266.79,22.76C271.189,26.606 275.183,30.892 278.71,35.55C283.333,41.676 285.835,49.145 285.835,56.82C285.835,76.191 269.896,92.13 250.525,92.13C239.456,92.13 229.008,86.925 222.34,78.09C221.726,77.295 221.036,76.562 220.28,75.9C215.93,72.368 210.462,70.496 204.86,70.62L90,70.62C78.91,70.62 70.62,77.25 70.62,83.17C70.62,88.17 76.81,94.34 86.8,95.53L86.99,95.53L148.18,103.17C165.776,105.358 179.132,120.479 179.132,138.21C179.132,157.566 163.216,173.499 143.86,173.52L143.86,173.54Z" style="fill:rgb(255,151,60);fill-opacity:0.8;fill-rule:nonzero;"/>
                                        </g>
                                    </g>
                                </g>
                            </g>
                        </g>
                        <g transform="matrix(0.125987,0,0,0.125987,208.119,-7.95112)">
                            <g>
                                <g>
                                    <rect x="0" y="0" width="10.155" height="40" style="fill:rgb(51,51,51);fill-opacity:0;"/>
                                    <g>
                                        <g>
                                            <path d="M35.31,278.16C15.94,278.16 0,262.22 0,242.85L0,35.31C-0,15.94 15.94,0 35.31,0C54.68,-0 70.62,15.94 70.62,35.31L70.62,242.85C70.62,262.22 54.68,278.16 35.31,278.16Z" style="fill:rgb(234,121,168);fill-opacity:0.8;fill-rule:nonzero;"/>
                                        </g>
                                    </g>
                                </g>
                            </g>
                        </g>
                        <g transform="matrix(0.125987,0,0,0.125987,217.016,-7.95112)">
                            <g>
                                <g>
                                    <rect x="0" y="0" width="44.274" height="40" style="fill:rgb(51,51,51);fill-opacity:0;"/>
                                    <g>
                                        <g>
                                            <path d="M196,278.16L112,278.16C50.597,278.127 0.071,227.632 0,166.23C0,146.86 15.94,130.92 35.31,130.92C54.68,130.92 70.62,146.86 70.62,166.23C70.647,188.885 89.285,207.518 111.94,207.54L195.94,207.54C218.594,207.518 237.228,188.884 237.25,166.23C237.25,146.86 253.19,130.92 272.56,130.92C291.93,130.92 307.87,146.86 307.87,166.23C307.804,227.585 257.355,278.061 196,278.16Z" style="fill:rgb(50,168,231);fill-opacity:0.8;fill-rule:nonzero;"/>
                                            <path d="M272.57,201.54C253.2,201.54 237.26,185.6 237.26,166.23L237.26,111.94C237.238,89.303 218.637,70.675 196,70.62L112,70.62C89.343,70.647 70.707,89.283 70.68,111.94L70.68,166.23C70.68,185.6 54.74,201.54 35.37,201.54C16,201.54 0.06,185.6 0.06,166.23L0.06,111.94C0.126,50.579 50.579,0.099 111.94,0L195.94,0C257.324,0.066 307.814,50.556 307.88,111.94L307.88,166.23C307.88,185.6 291.94,201.54 272.57,201.54Z" style="fill:rgb(34,182,120);fill-opacity:0.8;fill-rule:nonzero;"/>
                                        </g>
                                    </g>
                                </g>
                            </g>
                        </g>
                        <g transform="matrix(0.125987,0,0,0.125987,255.805,-7.95112)">
                            <g>
                                <g>
                                    <rect x="0" y="0" width="41.309" height="40" style="fill:rgb(51,51,51);fill-opacity:0;"/>
                                    <g>
                                        <g>
                                            <path d="M252,278.16C242.899,278.163 234.141,274.646 227.57,268.35L10.88,60.81C3.93,54.152 -0.004,44.934 -0.004,35.31C-0.004,15.937 15.937,-0.004 35.31,-0.004C44.411,-0.004 53.168,3.514 59.74,9.81L216.63,160.12L216.63,35.31C216.952,16.161 232.793,0.584 251.945,0.584C271.097,0.584 286.938,16.161 287.26,35.31L287.26,242.85C287.265,262.204 271.354,278.138 252,278.16Z" style="fill:rgb(173,107,192);fill-opacity:0.8;fill-rule:nonzero;"/>
                                            <path d="M35.31,278.16C15.94,278.16 0,262.22 0,242.85L0,35.31C-0,15.94 15.94,0 35.31,0C54.68,-0 70.62,15.94 70.62,35.31L70.62,242.85C70.62,262.22 54.68,278.16 35.31,278.16Z" style="fill:rgb(50,168,231);fill-opacity:0.8;fill-rule:nonzero;"/>
                                        </g>
                                    </g>
                                </g>
                            </g>
                        </g>
                    </g>
                </g>
            </g>
        </g>
    </g>
</svg>
